# Simple low-poly SpawnPoint marker
o PlayerSpawnMarker
v -0.550000 -0.550000 0.000000
v 0.550000 -0.550000 0.000000
v 0.550000 0.550000 0.000000
v -0.550000 0.550000 0.000000
v -0.550000 -0.550000 0.650000
v 0.550000 -0.550000 0.650000
v 0.550000 0.550000 0.650000
v -0.550000 0.550000 0.650000
v -0.950000 -0.950000 0.650000
v 0.950000 -0.950000 0.650000
v 0.950000 0.950000 0.650000
v -0.950000 0.950000 0.650000
v 0.000000 0.000000 2.000000
f 1 2 3 4
f 5 8 7 6
f 1 5 6 2
f 2 6 7 3
f 3 7 8 4
f 5 9 10 6
f 6 10 11 7
f 7 11 12 8
f 8 12 9 5
f 9 13 10
f 10 13 11
f 11 13 12
f 12 13 9
